<?xml version="1.0" standalone="no"?>
<!DOCTYPE svg PUBLIC "-//W3C//DTD SVG 20010904//EN"
 "http://www.w3.org/TR/2001/REC-SVG-20010904/DTD/svg10.dtd">
<svg version="1.0" xmlns="http://www.w3.org/2000/svg"
 width="544.000000pt" height="329.000000pt" viewBox="0 0 544.000000 329.000000"
 preserveAspectRatio="xMidYMid meet">

<g transform="translate(0.000000,329.000000) scale(0.100000,-0.100000)"
fill="#000000" stroke="none">
<path d="M128 3199 c-10 -5 -18 -20 -18 -32 0 -12 67 -303 148 -647 l148 -625
115 -3 115 -3 83 378 c46 208 86 384 90 390 4 7 44 -160 90 -370 46 -210 85
-385 88 -389 4 -8 233 -11 233 -4 0 2 65 280 145 617 80 337 145 627 145 645
0 47 -20 54 -147 54 l-108 0 -74 -358 c-41 -196 -76 -363 -79 -371 -3 -8 -41
148 -84 345 -43 197 -80 365 -83 372 -3 9 -38 12 -125 12 -66 0 -120 -3 -120
-6 0 -10 -150 -696 -157 -719 -6 -20 -9 -9 -114 478 l-53 247 -110 0 c-61 0
-119 -5 -128 -11z"/>
<path d="M2001 2978 c-5 -13 -95 -244 -200 -514 -105 -270 -191 -500 -191
-512 0 -33 32 -43 126 -40 l86 3 52 135 51 135 172 3 171 2 40 -102 c22 -57
45 -120 53 -140 l13 -38 89 0 c91 0 127 10 127 35 0 14 -382 1000 -401 1038
-8 14 -24 17 -95 17 -78 0 -85 -2 -93 -22z m189 -590 c0 -4 -43 -8 -96 -8 -73
0 -95 3 -91 13 57 143 90 223 94 230 5 8 93 -215 93 -235z"/>
<path d="M2720 2498 c0 -503 0 -505 22 -533 41 -52 60 -55 403 -55 l315 0 0
97 0 96 -243 -7 c-134 -4 -251 -4 -260 0 -16 6 -17 42 -17 433 0 348 -3 431
-14 446 -11 16 -30 20 -110 23 l-96 4 0 -504z"/>
<path d="M3600 2509 c0 -552 -1 -543 70 -581 32 -16 64 -18 352 -18 l318 0 0
97 0 96 -240 -7 c-164 -4 -246 -3 -260 4 -20 10 -20 21 -20 439 0 381 -2 430
-16 442 -10 8 -52 15 -110 17 l-94 4 0 -493z"/>
<path d="M550 1424 c-172 -46 -301 -172 -369 -358 -40 -113 -52 -188 -52 -325
1 -220 66 -397 196 -527 75 -76 145 -116 236 -135 74 -16 211 -6 281 21 210
79 349 311 365 610 25 464 -294 811 -657 714z m219 -234 c109 -55 171 -214
171 -440 0 -192 -40 -321 -124 -398 -126 -116 -310 -60 -376 114 -69 183 -63
450 14 603 29 57 78 108 121 127 47 20 149 18 194 -6z"/>
<path d="M1360 843 c0 -197 5 -389 10 -426 29 -196 181 -327 380 -327 197 0
349 127 380 317 6 32 10 214 10 404 0 282 -3 349 -14 365 -12 16 -29 20 -110
22 l-95 4 -3 -394 c-3 -380 -4 -395 -25 -440 -28 -62 -70 -88 -143 -88 -73 0
-115 26 -143 88 -21 45 -22 61 -25 422 -3 445 8 410 -133 410 l-89 0 0 -357z"/>
<path d="M2310 708 c0 -450 2 -496 18 -527 30 -59 67 -71 224 -71 75 0 161 5
190 11 147 31 281 137 342 271 43 92 56 156 56 266 0 219 -104 399 -281 486
-93 45 -164 56 -381 56 l-168 0 0 -492z m401 286 c108 -30 177 -114 205 -245
37 -176 -38 -365 -169 -427 -53 -26 -166 -38 -196 -23 -21 12 -21 15 -21 355
0 188 3 346 7 349 12 13 116 7 174 -9z"/>
<path d="M3889 764 c-106 -32 -194 -123 -225 -232 -44 -152 36 -321 185 -391
l56 -26 610 0 610 0 56 26 c72 34 134 96 168 168 21 46 26 70 26 136 0 66 -5
90 -26 136 -34 72 -96 134 -168 168 l-56 26 -595 2 c-494 2 -603 -1 -641 -13z
m1278 -53 c98 -44 173 -160 173 -266 0 -115 -83 -233 -193 -274 -57 -21 -70
-21 -632 -21 -562 0 -575 0 -631 21 -176 66 -245 273 -144 432 35 55 87 95
153 119 48 16 96 17 637 15 l585 -2 52 -24z"/>
<path d="M4159 561 c13 -8 12 -24 -7 -113 -13 -57 -25 -112 -28 -123 -5 -19 0
-21 56 -22 53 -2 64 1 92 26 25 22 32 37 36 79 5 57 -7 82 -41 82 -11 0 -29
-8 -40 -17 -20 -18 -20 -17 -14 24 4 23 10 48 13 57 5 13 -2 16 -37 16 -30 0
-40 -3 -30 -9z m101 -138 c0 -64 -44 -123 -71 -96 -10 10 -10 22 0 55 24 80
71 107 71 41z"/>
<path d="M4600 510 c-7 -16 -19 -30 -26 -30 -17 0 -19 -17 -2 -22 9 -3 8 -19
-2 -66 -10 -50 -10 -65 0 -77 15 -18 40 -19 75 -3 35 16 32 31 -5 23 -35 -8
-36 -4 -17 70 10 38 18 51 37 55 33 8 38 30 7 30 -20 0 -23 4 -19 25 7 38 -32
34 -48 -5z"/>
<path d="M4415 481 c-55 -23 -86 -121 -50 -161 24 -26 75 -26 109 1 34 26 24
43 -13 22 -34 -20 -61 -11 -61 20 0 21 6 25 42 31 48 8 78 30 78 57 0 33 -57
49 -105 30z m55 -31 c0 -18 -26 -40 -49 -40 -16 0 -13 21 6 42 21 24 43 23 43
-2z"/>
<path d="M4750 462 c-51 -52 -52 -153 -1 -160 13 -2 36 5 51 17 28 20 28 20
33 1 3 -11 14 -20 24 -20 25 0 65 29 57 41 -4 6 -11 6 -20 -2 -24 -20 -27 -2
-10 65 9 36 16 69 16 73 0 4 -27 9 -61 11 -55 2 -63 0 -89 -26z m84 -36 c-2
-40 -32 -91 -55 -91 -20 0 -17 77 5 110 25 39 51 29 50 -19z"/>
</g>
</svg>
