<svg width="25" height="24" fill="none" xmlns="http://www.w3.org/2000/svg"><path d="M9.759 21.835c-2.977-.017-5.439-6.093-5.439-9.188 0-5.054 3.792-6.161 5.254-6.161.658 0 1.361.259 1.982.488.434.16.882.324 1.132.324.149 0 .5-.14.812-.263.662-.264 1.487-.592 2.447-.592h.006c.717 0 2.89.157 4.197 2.12l.306.46-.44.333c-.63.475-1.778 1.34-1.778 3.057 0 2.032 1.3 2.814 1.925 3.19.276.166.562.337.562.711 0 .245-1.95 5.491-4.782 5.491-.693 0-1.183-.208-1.615-.392-.437-.186-.814-.346-1.437-.346-.316 0-.716.15-1.138.308-.578.215-1.232.46-1.975.46H9.76zm6.488-19.999c.074 2.659-1.828 4.504-3.728 4.388-.313-2.122 1.9-4.388 3.728-4.388z" fill="#000"/></svg>