<svg width="525" height="525" version="1.1" xmlns="http://www.w3.org/2000/svg" desc="Created with imagetracer.js version 1.2.6" ><path fill="rgb(0,0,0)" stroke="rgb(0,0,0)" stroke-width="1" opacity="0.803921568627451" d="M 255.5 0 L 261 0.5 L 255.5 1 L 255.5 0 Z " /><path fill="rgb(0,0,0)" stroke="rgb(0,0,0)" stroke-width="1" opacity="0.803921568627451" d="M 264.5 0 L 271 0.5 L 264.5 1 L 264.5 0 Z " /><path fill="rgb(0,0,0)" stroke="rgb(0,0,0)" stroke-width="1" opacity="0.803921568627451" d="M 249.5 1 L 252 1.5 L 249.5 2 L 249.5 1 Z " /><path fill="rgb(0,0,0)" stroke="rgb(0,0,0)" stroke-width="1" opacity="0.803921568627451" d="M 274.5 1 L 276 1.5 L 274.5 2 L 274.5 1 Z " /><path fill="rgb(0,0,0)" stroke="rgb(0,0,0)" stroke-width="1" opacity="0.803921568627451" d="M 246.5 2 L 248 2.5 L 246.5 3 L 246.5 2 Z " /><path fill="rgb(0,0,0)" stroke="rgb(0,0,0)" stroke-width="1" opacity="0.803921568627451" d="M 278.5 2 L 280 2.5 L 278.5 3 L 278.5 2 Z " /><path fill="rgb(0,0,0)" stroke="rgb(0,0,0)" stroke-width="1" opacity="0.803921568627451" d="M 243.5 3 L 243.5 4 L 243.5 3 Z " /><path fill="rgb(0,0,0)" stroke="rgb(0,0,0)" stroke-width="1" opacity="0.803921568627451" d="M 281.5 3 L 283 3.5 L 281.5 4 L 281.5 3 Z " /><path fill="rgb(0,0,0)" stroke="rgb(0,0,0)" stroke-width="1" opacity="0.803921568627451" d="M 240.5 4 L 242 4.5 L 240.5 5 L 240.5 4 Z " /><path fill="rgb(0,0,0)" stroke="rgb(0,0,0)" stroke-width="1" opacity="0.803921568627451" d="M 284.5 4 L 284.5 5 L 284.5 4 Z " /><path fill="rgb(0,0,0)" stroke="rgb(0,0,0)" stroke-width="1" opacity="0.803921568627451" d="M 238.5 5 L 238.5 6 L 238.5 5 Z " /><path fill="rgb(0,0,0)" stroke="rgb(0,0,0)" stroke-width="1" opacity="0.803921568627451" d="M 286.5 5 L 293 8.5 L 291.5 8 L 286.5 6 L 286.5 5 Z " /><path fill="rgb(0,0,0)" stroke="rgb(0,0,0)" stroke-width="1" opacity="0.803921568627451" d="M 236.5 6 L 236.5 7 L 236.5 6 Z " /><path fill="rgb(0,0,0)" stroke="rgb(0,0,0)" stroke-width="1" opacity="0.803921568627451" d="M 234.5 7 L 234.5 8 L 234.5 7 Z " /><path fill="rgb(0,0,0)" stroke="rgb(0,0,0)" stroke-width="1" opacity="0.803921568627451" d="M 232.5 8 Q 234 9 231.5 10 Q 230 9 232.5 8 Z " /><path fill="rgb(0,0,0)" stroke="rgb(0,0,0)" stroke-width="1" opacity="0.803921568627451" d="M 294.5 9 Q 297 10 295.5 11 Q 293 10 294.5 9 Z " /><path fill="rgb(0,0,0)" stroke="rgb(0,0,0)" stroke-width="1" opacity="0.803921568627451" d="M 229.5 10 L 230 10.5 L 227.5 13 L 227 12.5 L 229.5 10 Z " /><path fill="rgb(0,0,0)" stroke="rgb(0,0,0)" stroke-width="1" opacity="0.803921568627451" d="M 297.5 11 L 307 19.5 L 313 27.5 L 320 42.5 L 321 51.5 L 322 52.5 L 322 66.5 L 321 67.5 L 320 76.5 L 318 79.5 L 316 86.5 L 308 98.5 L 301.5 105 L 297.5 108 L 297 107.5 L 300.5 104 L 306 99.5 L 312 91.5 L 319 75.5 L 320 66.5 L 321 65.5 L 321 53.5 L 320 52.5 L 320 47.5 L 319 46.5 L 319 43.5 L 317 37.5 L 310 24.5 L 302.5 16 L 297 11.5 L 297.5 11 Z " /><path fill="rgb(0,0,0)" stroke="rgb(0,0,0)" stroke-width="1" opacity="0.803921568627451" d="M 225.5 13 L 226 13.5 L 217.5 22 L 217 21.5 L 225.5 13 Z " /><path fill="rgb(0,0,0)" stroke="rgb(0,0,0)" stroke-width="1" opacity="0.803921568627451" d="M 216.5 23 L 217 23.5 L 214.5 26 L 214 25.5 L 216.5 23 Z " /><path fill="rgb(0,0,0)" stroke="rgb(0,0,0)" stroke-width="1" opacity="0.803921568627451" d="M 213.5 27 L 213 28.5 L 211.5 31 L 212 29.5 L 213.5 27 Z " /><path fill="rgb(0,0,0)" stroke="rgb(0,0,0)" stroke-width="1" opacity="0.803921568627451" d="M 210.5 32 L 210.5 33 L 210.5 32 Z " /><path fill="rgb(0,0,0)" stroke="rgb(0,0,0)" stroke-width="1" opacity="0.803921568627451" d="M 209.5 34 L 209.5 35 L 209.5 34 Z " /><path fill="rgb(0,0,0)" stroke="rgb(0,0,0)" stroke-width="1" opacity="0.803921568627451" d="M 208.5 36 L 209 37.5 L 208 37.5 L 208.5 36 Z " /><path fill="rgb(0,0,0)" stroke="rgb(0,0,0)" stroke-width="1" opacity="0.803921568627451" d="M 207.5 39 L 207.5 40 L 207.5 39 Z " /><path fill="rgb(0,0,0)" stroke="rgb(0,0,0)" stroke-width="1" opacity="0.803921568627451" d="M 206.5 41 L 207 43.5 L 206 43.5 L 206.5 41 Z " /><path fill="rgb(0,0,0)" stroke="rgb(0,0,0)" stroke-width="1" opacity="0.803921568627451" d="M 205.5 45 L 206 47.5 L 205 47.5 L 205.5 45 Z " /><path fill="rgb(0,0,0)" stroke="rgb(0,0,0)" stroke-width="1" opacity="0.803921568627451" d="M 204.5 50 L 205 55.5 L 204 55.5 L 204.5 50 Z " /><path fill="rgb(0,0,0)" stroke="rgb(0,0,0)" stroke-width="1" opacity="0.803921568627451" d="M 204.5 63 L 205 68.5 L 204 68.5 L 204.5 63 Z " /><path fill="rgb(0,0,0)" stroke="rgb(0,0,0)" stroke-width="1" opacity="0.803921568627451" d="M 205.5 71 L 206 73.5 L 205 73.5 L 205.5 71 Z " /><path fill="rgb(0,0,0)" stroke="rgb(0,0,0)" stroke-width="1" opacity="0.803921568627451" d="M 206.5 75 L 207 77.5 L 206 77.5 L 206.5 75 Z " /><path fill="rgb(0,0,0)" stroke="rgb(0,0,0)" stroke-width="1" opacity="0.803921568627451" d="M 207.5 79 L 207.5 80 L 207.5 79 Z " /><path fill="rgb(0,0,0)" stroke="rgb(0,0,0)" stroke-width="1" opacity="0.803921568627451" d="M 208.5 81 L 209 82.5 L 208 82.5 L 208.5 81 Z " /><path fill="rgb(0,0,0)" stroke="rgb(0,0,0)" stroke-width="1" opacity="0.803921568627451" d="M 209.5 84 L 209.5 85 L 209.5 84 Z " /><path fill="rgb(0,0,0)" stroke="rgb(0,0,0)" stroke-width="1" opacity="0.803921568627451" d="M 210.5 86 L 210.5 87 L 210.5 86 Z " /><path fill="rgb(0,0,0)" stroke="rgb(0,0,0)" stroke-width="1" opacity="0.803921568627451" d="M 211.5 88 L 214 91.5 Q 213 93 212 90.5 L 211.5 88 Z " /><path fill="rgb(0,0,0)" stroke="rgb(0,0,0)" stroke-width="1" opacity="0.803921568627451" d="M 214.5 93 L 217 95.5 L 216.5 96 L 214 93.5 L 214.5 93 Z " /><path fill="rgb(0,0,0)" stroke="rgb(0,0,0)" stroke-width="1" opacity="0.803921568627451" d="M 217.5 97 L 226 105.5 L 225.5 106 L 217 97.5 L 217.5 97 Z " /><path fill="rgb(0,0,0)" stroke="rgb(0,0,0)" stroke-width="1" opacity="0.803921568627451" d="M 228.5 107 Q 231 108 229.5 109 Q 227 108 228.5 107 Z " /><path fill="rgb(0,0,0)" stroke="rgb(0,0,0)" stroke-width="1" opacity="0.803921568627451" d="M 295.5 108 Q 297 109 294.5 110 Q 293 109 295.5 108 Z " /><path fill="rgb(0,0,0)" stroke="rgb(0,0,0)" stroke-width="1" opacity="0.803921568627451" d="M 231.5 109 Q 234 110 232.5 111 Q 230 110 231.5 109 Z " /><path fill="rgb(0,0,0)" stroke="rgb(0,0,0)" stroke-width="1" opacity="0.803921568627451" d="M 292.5 110 Q 294 111 291.5 112 L 286.5 114 L 286.5 113 L 292.5 110 Z " /><path fill="rgb(0,0,0)" stroke="rgb(0,0,0)" stroke-width="1" opacity="0.803921568627451" d="M 234.5 111 L 234.5 112 L 234.5 111 Z " /><path fill="rgb(0,0,0)" stroke="rgb(0,0,0)" stroke-width="1" opacity="0.803921568627451" d="M 236.5 112 L 236.5 113 L 236.5 112 Z " /><path fill="rgb(0,0,0)" stroke="rgb(0,0,0)" stroke-width="1" opacity="0.803921568627451" d="M 238.5 113 L 238.5 114 L 238.5 113 Z " /><path fill="rgb(0,0,0)" stroke="rgb(0,0,0)" stroke-width="1" opacity="0.803921568627451" d="M 240.5 114 L 242 114.5 L 240.5 115 L 240.5 114 Z " /><path fill="rgb(0,0,0)" stroke="rgb(0,0,0)" stroke-width="1" opacity="0.803921568627451" d="M 284.5 114 L 284.5 115 L 284.5 114 Z " /><path fill="rgb(0,0,0)" stroke="rgb(0,0,0)" stroke-width="1" opacity="0.803921568627451" d="M 243.5 115 L 243.5 116 L 243.5 115 Z " /><path fill="rgb(0,0,0)" stroke="rgb(0,0,0)" stroke-width="1" opacity="0.803921568627451" d="M 281.5 115 L 283 115.5 L 281.5 116 L 281.5 115 Z " /><path fill="rgb(0,0,0)" stroke="rgb(0,0,0)" stroke-width="1" opacity="0.803921568627451" d="M 246.5 116 L 248 116.5 L 246.5 117 L 246.5 116 Z " /><path fill="rgb(0,0,0)" stroke="rgb(0,0,0)" stroke-width="1" opacity="0.803921568627451" d="M 278.5 116 L 280 116.5 L 278.5 117 L 278.5 116 Z " /><path fill="rgb(0,0,0)" stroke="rgb(0,0,0)" stroke-width="1" opacity="0.803921568627451" d="M 249.5 117 L 252 117.5 L 249.5 118 L 249.5 117 Z " /><path fill="rgb(0,0,0)" stroke="rgb(0,0,0)" stroke-width="1" opacity="0.803921568627451" d="M 274.5 117 L 276 117.5 L 274.5 118 L 274.5 117 Z " /><path fill="rgb(0,0,0)" stroke="rgb(0,0,0)" stroke-width="1" opacity="0.803921568627451" d="M 255.5 118 L 261 118.5 L 255.5 119 L 255.5 118 Z " /><path fill="rgb(0,0,0)" stroke="rgb(0,0,0)" stroke-width="1" opacity="0.803921568627451" d="M 264.5 118 L 271 118.5 L 264.5 119 L 264.5 118 Z " /><path fill="rgb(0,0,0)" stroke="rgb(0,0,0)" stroke-width="1" opacity="0.803921568627451" d="M 255.5 203 L 261 203.5 L 255.5 204 L 255.5 203 Z " /><path fill="rgb(0,0,0)" stroke="rgb(0,0,0)" stroke-width="1" opacity="0.803921568627451" d="M 264.5 203 L 271 203.5 L 264.5 204 L 264.5 203 Z " /><path fill="rgb(0,0,0)" stroke="rgb(0,0,0)" stroke-width="1" opacity="0.803921568627451" d="M 249.5 204 L 252 204.5 L 249.5 205 L 249.5 204 Z " /><path fill="rgb(0,0,0)" stroke="rgb(0,0,0)" stroke-width="1" opacity="0.803921568627451" d="M 274.5 204 L 276 204.5 L 274.5 205 L 274.5 204 Z " /><path fill="rgb(0,0,0)" stroke="rgb(0,0,0)" stroke-width="1" opacity="0.803921568627451" d="M 246.5 205 L 248 205.5 L 246.5 206 L 246.5 205 Z " /><path fill="rgb(0,0,0)" stroke="rgb(0,0,0)" stroke-width="1" opacity="0.803921568627451" d="M 278.5 205 L 280 205.5 L 278.5 206 L 278.5 205 Z " /><path fill="rgb(0,0,0)" stroke="rgb(0,0,0)" stroke-width="1" opacity="0.803921568627451" d="M 243.5 206 L 243.5 207 L 243.5 206 Z " /><path fill="rgb(0,0,0)" stroke="rgb(0,0,0)" stroke-width="1" opacity="0.803921568627451" d="M 281.5 206 L 283 206.5 L 281.5 207 L 281.5 206 Z " /><path fill="rgb(0,0,0)" stroke="rgb(0,0,0)" stroke-width="1" opacity="0.803921568627451" d="M 240.5 207 L 242 207.5 L 240.5 208 L 240.5 207 Z " /><path fill="rgb(0,0,0)" stroke="rgb(0,0,0)" stroke-width="1" opacity="0.803921568627451" d="M 284.5 207 L 284.5 208 L 284.5 207 Z " /><path fill="rgb(0,0,0)" stroke="rgb(0,0,0)" stroke-width="1" opacity="0.803921568627451" d="M 238.5 208 L 238.5 209 L 238.5 208 Z " /><path fill="rgb(0,0,0)" stroke="rgb(0,0,0)" stroke-width="1" opacity="0.803921568627451" d="M 286.5 208 L 293 211.5 L 291.5 211 L 286.5 209 L 286.5 208 Z " /><path fill="rgb(0,0,0)" stroke="rgb(0,0,0)" stroke-width="1" opacity="0.803921568627451" d="M 236.5 209 L 236.5 210 L 236.5 209 Z " /><path fill="rgb(0,0,0)" stroke="rgb(0,0,0)" stroke-width="1" opacity="0.803921568627451" d="M 234.5 210 L 234.5 211 L 234.5 210 Z " /><path fill="rgb(0,0,0)" stroke="rgb(0,0,0)" stroke-width="1" opacity="0.803921568627451" d="M 232.5 211 Q 234 212 231.5 213 Q 230 212 232.5 211 Z " /><path fill="rgb(0,0,0)" stroke="rgb(0,0,0)" stroke-width="1" opacity="0.803921568627451" d="M 294.5 212 Q 297 213 295.5 214 Q 293 213 294.5 212 Z " /><path fill="rgb(0,0,0)" stroke="rgb(0,0,0)" stroke-width="1" opacity="0.803921568627451" d="M 229.5 213 L 230 213.5 L 227.5 216 L 227 215.5 L 229.5 213 Z " /><path fill="rgb(0,0,0)" stroke="rgb(0,0,0)" stroke-width="1" opacity="0.803921568627451" d="M 297.5 214 L 307 222.5 L 313 230.5 L 320 245.5 L 321 254.5 L 322 255.5 L 322 269.5 L 321 270.5 L 320 279.5 L 318 282.5 L 316 289.5 L 308 301.5 L 301.5 308 L 297.5 311 L 297 310.5 L 300.5 307 L 306 302.5 L 312 294.5 L 319 278.5 L 320 269.5 L 321 268.5 L 321 256.5 L 320 255.5 L 320 250.5 L 319 249.5 L 319 246.5 L 317 240.5 L 310 227.5 L 302.5 219 L 297 214.5 L 297.5 214 Z " /><path fill="rgb(0,0,0)" stroke="rgb(0,0,0)" stroke-width="1" opacity="0.803921568627451" d="M 225.5 216 L 226 216.5 L 217.5 225 L 217 224.5 L 225.5 216 Z " /><path fill="rgb(0,0,0)" stroke="rgb(0,0,0)" stroke-width="1" opacity="0.803921568627451" d="M 216.5 226 L 217 226.5 L 214.5 229 L 214 228.5 L 216.5 226 Z " /><path fill="rgb(0,0,0)" stroke="rgb(0,0,0)" stroke-width="1" opacity="0.803921568627451" d="M 213.5 230 L 213 231.5 L 211.5 234 L 212 232.5 L 213.5 230 Z " /><path fill="rgb(0,0,0)" stroke="rgb(0,0,0)" stroke-width="1" opacity="0.803921568627451" d="M 210.5 235 L 210.5 236 L 210.5 235 Z " /><path fill="rgb(0,0,0)" stroke="rgb(0,0,0)" stroke-width="1" opacity="0.803921568627451" d="M 209.5 237 L 209.5 238 L 209.5 237 Z " /><path fill="rgb(0,0,0)" stroke="rgb(0,0,0)" stroke-width="1" opacity="0.803921568627451" d="M 208.5 239 L 209 240.5 L 208 240.5 L 208.5 239 Z " /><path fill="rgb(0,0,0)" stroke="rgb(0,0,0)" stroke-width="1" opacity="0.803921568627451" d="M 207.5 242 L 207.5 243 L 207.5 242 Z " /><path fill="rgb(0,0,0)" stroke="rgb(0,0,0)" stroke-width="1" opacity="0.803921568627451" d="M 206.5 244 L 207 246.5 L 206 246.5 L 206.5 244 Z " /><path fill="rgb(0,0,0)" stroke="rgb(0,0,0)" stroke-width="1" opacity="0.803921568627451" d="M 205.5 248 L 206 250.5 L 205 250.5 L 205.5 248 Z " /><path fill="rgb(0,0,0)" stroke="rgb(0,0,0)" stroke-width="1" opacity="0.803921568627451" d="M 204.5 253 L 205 258.5 L 204 258.5 L 204.5 253 Z " /><path fill="rgb(0,0,0)" stroke="rgb(0,0,0)" stroke-width="1" opacity="0.803921568627451" d="M 204.5 266 L 205 271.5 L 204 271.5 L 204.5 266 Z " /><path fill="rgb(0,0,0)" stroke="rgb(0,0,0)" stroke-width="1" opacity="0.803921568627451" d="M 205.5 274 L 206 276.5 L 205 276.5 L 205.5 274 Z " /><path fill="rgb(0,0,0)" stroke="rgb(0,0,0)" stroke-width="1" opacity="0.803921568627451" d="M 206.5 278 L 207 280.5 L 206 280.5 L 206.5 278 Z " /><path fill="rgb(0,0,0)" stroke="rgb(0,0,0)" stroke-width="1" opacity="0.803921568627451" d="M 207.5 282 L 207.5 283 L 207.5 282 Z " /><path fill="rgb(0,0,0)" stroke="rgb(0,0,0)" stroke-width="1" opacity="0.803921568627451" d="M 208.5 284 L 209 285.5 L 208 285.5 L 208.5 284 Z " /><path fill="rgb(0,0,0)" stroke="rgb(0,0,0)" stroke-width="1" opacity="0.803921568627451" d="M 209.5 287 L 209.5 288 L 209.5 287 Z " /><path fill="rgb(0,0,0)" stroke="rgb(0,0,0)" stroke-width="1" opacity="0.803921568627451" d="M 210.5 289 L 210.5 290 L 210.5 289 Z " /><path fill="rgb(0,0,0)" stroke="rgb(0,0,0)" stroke-width="1" opacity="0.803921568627451" d="M 211.5 291 L 214 294.5 Q 213 296 212 293.5 L 211.5 291 Z " /><path fill="rgb(0,0,0)" stroke="rgb(0,0,0)" stroke-width="1" opacity="0.803921568627451" d="M 214.5 296 L 217 298.5 L 216.5 299 L 214 296.5 L 214.5 296 Z " /><path fill="rgb(0,0,0)" stroke="rgb(0,0,0)" stroke-width="1" opacity="0.803921568627451" d="M 217.5 300 L 226 308.5 L 225.5 309 L 217 300.5 L 217.5 300 Z " /><path fill="rgb(0,0,0)" stroke="rgb(0,0,0)" stroke-width="1" opacity="0.803921568627451" d="M 228.5 310 Q 231 311 229.5 312 Q 227 311 228.5 310 Z " /><path fill="rgb(0,0,0)" stroke="rgb(0,0,0)" stroke-width="1" opacity="0.803921568627451" d="M 295.5 311 Q 297 312 294.5 313 Q 293 312 295.5 311 Z " /><path fill="rgb(0,0,0)" stroke="rgb(0,0,0)" stroke-width="1" opacity="0.803921568627451" d="M 231.5 312 Q 234 313 232.5 314 Q 230 313 231.5 312 Z " /><path fill="rgb(0,0,0)" stroke="rgb(0,0,0)" stroke-width="1" opacity="0.803921568627451" d="M 292.5 313 Q 294 314 291.5 315 L 286.5 317 L 286.5 316 L 292.5 313 Z " /><path fill="rgb(0,0,0)" stroke="rgb(0,0,0)" stroke-width="1" opacity="0.803921568627451" d="M 234.5 314 L 234.5 315 L 234.5 314 Z " /><path fill="rgb(0,0,0)" stroke="rgb(0,0,0)" stroke-width="1" opacity="0.803921568627451" d="M 236.5 315 L 236.5 316 L 236.5 315 Z " /><path fill="rgb(0,0,0)" stroke="rgb(0,0,0)" stroke-width="1" opacity="0.803921568627451" d="M 238.5 316 L 238.5 317 L 238.5 316 Z " /><path fill="rgb(0,0,0)" stroke="rgb(0,0,0)" stroke-width="1" opacity="0.803921568627451" d="M 240.5 317 L 242 317.5 L 240.5 318 L 240.5 317 Z " /><path fill="rgb(0,0,0)" stroke="rgb(0,0,0)" stroke-width="1" opacity="0.803921568627451" d="M 284.5 317 L 284.5 318 L 284.5 317 Z " /><path fill="rgb(0,0,0)" stroke="rgb(0,0,0)" stroke-width="1" opacity="0.803921568627451" d="M 243.5 318 L 243.5 319 L 243.5 318 Z " /><path fill="rgb(0,0,0)" stroke="rgb(0,0,0)" stroke-width="1" opacity="0.803921568627451" d="M 281.5 318 L 283 318.5 L 281.5 319 L 281.5 318 Z " /><path fill="rgb(0,0,0)" stroke="rgb(0,0,0)" stroke-width="1" opacity="0.803921568627451" d="M 246.5 319 L 248 319.5 L 246.5 320 L 246.5 319 Z " /><path fill="rgb(0,0,0)" stroke="rgb(0,0,0)" stroke-width="1" opacity="0.803921568627451" d="M 278.5 319 L 280 319.5 L 278.5 320 L 278.5 319 Z " /><path fill="rgb(0,0,0)" stroke="rgb(0,0,0)" stroke-width="1" opacity="0.803921568627451" d="M 249.5 320 L 252 320.5 L 249.5 321 L 249.5 320 Z " /><path fill="rgb(0,0,0)" stroke="rgb(0,0,0)" stroke-width="1" opacity="0.803921568627451" d="M 274.5 320 L 276 320.5 L 274.5 321 L 274.5 320 Z " /><path fill="rgb(0,0,0)" stroke="rgb(0,0,0)" stroke-width="1" opacity="0.803921568627451" d="M 255.5 321 L 261 321.5 L 255.5 322 L 255.5 321 Z " /><path fill="rgb(0,0,0)" stroke="rgb(0,0,0)" stroke-width="1" opacity="0.803921568627451" d="M 264.5 321 L 271 321.5 L 264.5 322 L 264.5 321 Z " /><path fill="rgb(0,0,0)" stroke="rgb(0,0,0)" stroke-width="1" opacity="0.803921568627451" d="M 255.5 406 L 261 406.5 L 255.5 407 L 255.5 406 Z " /><path fill="rgb(0,0,0)" stroke="rgb(0,0,0)" stroke-width="1" opacity="0.803921568627451" d="M 264.5 406 L 271 406.5 L 264.5 407 L 264.5 406 Z " /><path fill="rgb(0,0,0)" stroke="rgb(0,0,0)" stroke-width="1" opacity="0.803921568627451" d="M 249.5 407 L 252 407.5 L 249.5 408 L 249.5 407 Z " /><path fill="rgb(0,0,0)" stroke="rgb(0,0,0)" stroke-width="1" opacity="0.803921568627451" d="M 274.5 407 L 276 407.5 L 274.5 408 L 274.5 407 Z " /><path fill="rgb(0,0,0)" stroke="rgb(0,0,0)" stroke-width="1" opacity="0.803921568627451" d="M 246.5 408 L 248 408.5 L 246.5 409 L 246.5 408 Z " /><path fill="rgb(0,0,0)" stroke="rgb(0,0,0)" stroke-width="1" opacity="0.803921568627451" d="M 278.5 408 L 280 408.5 L 278.5 409 L 278.5 408 Z " /><path fill="rgb(0,0,0)" stroke="rgb(0,0,0)" stroke-width="1" opacity="0.803921568627451" d="M 243.5 409 L 243.5 410 L 243.5 409 Z " /><path fill="rgb(0,0,0)" stroke="rgb(0,0,0)" stroke-width="1" opacity="0.803921568627451" d="M 281.5 409 L 283 409.5 L 281.5 410 L 281.5 409 Z " /><path fill="rgb(0,0,0)" stroke="rgb(0,0,0)" stroke-width="1" opacity="0.803921568627451" d="M 240.5 410 L 242 410.5 L 240.5 411 L 240.5 410 Z " /><path fill="rgb(0,0,0)" stroke="rgb(0,0,0)" stroke-width="1" opacity="0.803921568627451" d="M 284.5 410 L 284.5 411 L 284.5 410 Z " /><path fill="rgb(0,0,0)" stroke="rgb(0,0,0)" stroke-width="1" opacity="0.803921568627451" d="M 238.5 411 L 238.5 412 L 238.5 411 Z " /><path fill="rgb(0,0,0)" stroke="rgb(0,0,0)" stroke-width="1" opacity="0.803921568627451" d="M 286.5 411 L 293 414.5 L 291.5 414 L 286.5 412 L 286.5 411 Z " /><path fill="rgb(0,0,0)" stroke="rgb(0,0,0)" stroke-width="1" opacity="0.803921568627451" d="M 236.5 412 L 236.5 413 L 236.5 412 Z " /><path fill="rgb(0,0,0)" stroke="rgb(0,0,0)" stroke-width="1" opacity="0.803921568627451" d="M 234.5 413 L 234.5 414 L 234.5 413 Z " /><path fill="rgb(0,0,0)" stroke="rgb(0,0,0)" stroke-width="1" opacity="0.803921568627451" d="M 232.5 414 Q 234 415 231.5 416 Q 230 415 232.5 414 Z " /><path fill="rgb(0,0,0)" stroke="rgb(0,0,0)" stroke-width="1" opacity="0.803921568627451" d="M 294.5 415 Q 297 416 295.5 417 Q 293 416 294.5 415 Z " /><path fill="rgb(0,0,0)" stroke="rgb(0,0,0)" stroke-width="1" opacity="0.803921568627451" d="M 229.5 416 L 230 416.5 L 227.5 419 L 227 418.5 L 229.5 416 Z " /><path fill="rgb(0,0,0)" stroke="rgb(0,0,0)" stroke-width="1" opacity="0.803921568627451" d="M 297.5 417 L 307 425.5 L 313 433.5 L 320 448.5 L 321 457.5 L 322 458.5 L 322 472.5 L 321 473.5 L 320 482.5 L 318 485.5 L 316 492.5 L 308 504.5 L 301.5 511 L 297.5 514 L 297 513.5 L 300.5 510 L 306 505.5 L 312 497.5 L 319 481.5 L 320 472.5 L 321 471.5 L 321 459.5 L 320 458.5 L 320 453.5 L 319 452.5 L 319 449.5 L 317 443.5 L 310 430.5 L 302.5 422 L 297 417.5 L 297.5 417 Z " /><path fill="rgb(0,0,0)" stroke="rgb(0,0,0)" stroke-width="1" opacity="0.803921568627451" d="M 225.5 419 L 226 419.5 L 217.5 428 L 217 427.5 L 225.5 419 Z " /><path fill="rgb(0,0,0)" stroke="rgb(0,0,0)" stroke-width="1" opacity="0.803921568627451" d="M 216.5 429 L 217 429.5 L 214.5 432 L 214 431.5 L 216.5 429 Z " /><path fill="rgb(0,0,0)" stroke="rgb(0,0,0)" stroke-width="1" opacity="0.803921568627451" d="M 213.5 433 L 213 434.5 L 211.5 437 L 212 435.5 L 213.5 433 Z " /><path fill="rgb(0,0,0)" stroke="rgb(0,0,0)" stroke-width="1" opacity="0.803921568627451" d="M 210.5 438 L 210.5 439 L 210.5 438 Z " /><path fill="rgb(0,0,0)" stroke="rgb(0,0,0)" stroke-width="1" opacity="0.803921568627451" d="M 209.5 440 L 209.5 441 L 209.5 440 Z " /><path fill="rgb(0,0,0)" stroke="rgb(0,0,0)" stroke-width="1" opacity="0.803921568627451" d="M 208.5 442 L 209 443.5 L 208 443.5 L 208.5 442 Z " /><path fill="rgb(0,0,0)" stroke="rgb(0,0,0)" stroke-width="1" opacity="0.803921568627451" d="M 207.5 445 L 207.5 446 L 207.5 445 Z " /><path fill="rgb(0,0,0)" stroke="rgb(0,0,0)" stroke-width="1" opacity="0.803921568627451" d="M 206.5 447 L 207 449.5 L 206 449.5 L 206.5 447 Z " /><path fill="rgb(0,0,0)" stroke="rgb(0,0,0)" stroke-width="1" opacity="0.803921568627451" d="M 205.5 451 L 206 453.5 L 205 453.5 L 205.5 451 Z " /><path fill="rgb(0,0,0)" stroke="rgb(0,0,0)" stroke-width="1" opacity="0.803921568627451" d="M 204.5 456 L 205 461.5 L 204 461.5 L 204.5 456 Z " /><path fill="rgb(0,0,0)" stroke="rgb(0,0,0)" stroke-width="1" opacity="0.803921568627451" d="M 204.5 469 L 205 474.5 L 204 474.5 L 204.5 469 Z " /><path fill="rgb(0,0,0)" stroke="rgb(0,0,0)" stroke-width="1" opacity="0.803921568627451" d="M 205.5 477 L 206 479.5 L 205 479.5 L 205.5 477 Z " /><path fill="rgb(0,0,0)" stroke="rgb(0,0,0)" stroke-width="1" opacity="0.803921568627451" d="M 206.5 481 L 207 483.5 L 206 483.5 L 206.5 481 Z " /><path fill="rgb(0,0,0)" stroke="rgb(0,0,0)" stroke-width="1" opacity="0.803921568627451" d="M 207.5 485 L 207.5 486 L 207.5 485 Z " /><path fill="rgb(0,0,0)" stroke="rgb(0,0,0)" stroke-width="1" opacity="0.803921568627451" d="M 208.5 487 L 209 488.5 L 208 488.5 L 208.5 487 Z " /><path fill="rgb(0,0,0)" stroke="rgb(0,0,0)" stroke-width="1" opacity="0.803921568627451" d="M 209.5 490 L 209.5 491 L 209.5 490 Z " /><path fill="rgb(0,0,0)" stroke="rgb(0,0,0)" stroke-width="1" opacity="0.803921568627451" d="M 210.5 492 L 210.5 493 L 210.5 492 Z " /><path fill="rgb(0,0,0)" stroke="rgb(0,0,0)" stroke-width="1" opacity="0.803921568627451" d="M 211.5 494 L 214 497.5 Q 213 499 212 496.5 L 211.5 494 Z " /><path fill="rgb(0,0,0)" stroke="rgb(0,0,0)" stroke-width="1" opacity="0.803921568627451" d="M 214.5 499 L 217 501.5 L 216.5 502 L 214 499.5 L 214.5 499 Z " /><path fill="rgb(0,0,0)" stroke="rgb(0,0,0)" stroke-width="1" opacity="0.803921568627451" d="M 217.5 503 L 226 511.5 L 225.5 512 L 217 503.5 L 217.5 503 Z " /><path fill="rgb(0,0,0)" stroke="rgb(0,0,0)" stroke-width="1" opacity="0.803921568627451" d="M 228.5 513 Q 231 514 229.5 515 Q 227 514 228.5 513 Z " /><path fill="rgb(0,0,0)" stroke="rgb(0,0,0)" stroke-width="1" opacity="0.803921568627451" d="M 295.5 514 Q 297 515 294.5 516 Q 293 515 295.5 514 Z " /><path fill="rgb(0,0,0)" stroke="rgb(0,0,0)" stroke-width="1" opacity="0.803921568627451" d="M 231.5 515 Q 234 516 232.5 517 Q 230 516 231.5 515 Z " /><path fill="rgb(0,0,0)" stroke="rgb(0,0,0)" stroke-width="1" opacity="0.803921568627451" d="M 292.5 516 Q 294 517 291.5 518 L 286.5 520 L 286.5 519 L 292.5 516 Z " /><path fill="rgb(0,0,0)" stroke="rgb(0,0,0)" stroke-width="1" opacity="0.803921568627451" d="M 234.5 517 L 234.5 518 L 234.5 517 Z " /><path fill="rgb(0,0,0)" stroke="rgb(0,0,0)" stroke-width="1" opacity="0.803921568627451" d="M 236.5 518 L 236.5 519 L 236.5 518 Z " /><path fill="rgb(0,0,0)" stroke="rgb(0,0,0)" stroke-width="1" opacity="0.803921568627451" d="M 238.5 519 L 238.5 520 L 238.5 519 Z " /><path fill="rgb(0,0,0)" stroke="rgb(0,0,0)" stroke-width="1" opacity="0.803921568627451" d="M 240.5 520 L 242 520.5 L 240.5 521 L 240.5 520 Z " /><path fill="rgb(0,0,0)" stroke="rgb(0,0,0)" stroke-width="1" opacity="0.803921568627451" d="M 284.5 520 L 284.5 521 L 284.5 520 Z " /><path fill="rgb(0,0,0)" stroke="rgb(0,0,0)" stroke-width="1" opacity="0.803921568627451" d="M 243.5 521 L 243.5 522 L 243.5 521 Z " /><path fill="rgb(0,0,0)" stroke="rgb(0,0,0)" stroke-width="1" opacity="0.803921568627451" d="M 281.5 521 L 283 521.5 L 281.5 522 L 281.5 521 Z " /><path fill="rgb(0,0,0)" stroke="rgb(0,0,0)" stroke-width="1" opacity="0.803921568627451" d="M 246.5 522 L 248 522.5 L 246.5 523 L 246.5 522 Z " /><path fill="rgb(0,0,0)" stroke="rgb(0,0,0)" stroke-width="1" opacity="0.803921568627451" d="M 278.5 522 L 280 522.5 L 278.5 523 L 278.5 522 Z " /><path fill="rgb(0,0,0)" stroke="rgb(0,0,0)" stroke-width="1" opacity="0.803921568627451" d="M 249.5 523 L 252 523.5 L 249.5 524 L 249.5 523 Z " /><path fill="rgb(0,0,0)" stroke="rgb(0,0,0)" stroke-width="1" opacity="0.803921568627451" d="M 274.5 523 L 276 523.5 L 274.5 524 L 274.5 523 Z " /><path fill="rgb(0,0,0)" stroke="rgb(0,0,0)" stroke-width="1" opacity="0.803921568627451" d="M 255.5 524 L 261 524.5 L 255.5 525 L 255.5 524 Z " /><path fill="rgb(0,0,0)" stroke="rgb(0,0,0)" stroke-width="1" opacity="0.803921568627451" d="M 264.5 524 L 271 524.5 L 264.5 525 L 264.5 524 Z " /><path fill="rgb(0,0,0)" stroke="rgb(0,0,0)" stroke-width="1" opacity="1" d="M 261.5 0 L 264.5 1 L 273.5 1 L 274.5 2 L 277.5 2 L 283.5 4 L 296.5 11 L 305 18.5 L 312 27.5 L 317 37.5 L 319 43.5 L 319 46.5 L 320 47.5 L 320 52.5 L 321 53.5 L 321 65.5 L 320 66.5 L 320 71.5 L 319 72.5 L 319 75.5 L 317 81.5 L 312 91.5 L 301.5 104 L 293.5 110 L 283.5 115 L 277.5 117 L 274.5 117 L 273.5 118 L 264.5 118 L 261.5 119 L 260.5 118 L 252.5 118 L 251.5 117 L 244.5 116 L 233.5 111 Q 223.7 105.3 217 96.5 L 211 87.5 L 207 78.5 L 207 75.5 L 205 70.5 L 204 56.5 L 205 55.5 L 205 48.5 L 206 47.5 L 207 40.5 L 211 31.5 L 217 22.5 L 226.5 13 L 233.5 8 L 244.5 3 L 247.5 3 L 252.5 1 L 260.5 1 L 261.5 0 Z " /><path fill="rgb(0,0,0)" stroke="rgb(0,0,0)" stroke-width="1" opacity="1" d="M 261.5 203 L 264.5 204 L 273.5 204 L 274.5 205 L 277.5 205 L 283.5 207 L 296.5 214 L 305 221.5 L 312 230.5 L 317 240.5 L 319 246.5 L 319 249.5 L 320 250.5 L 320 255.5 L 321 256.5 L 321 268.5 L 320 269.5 L 320 274.5 L 319 275.5 L 319 278.5 L 317 284.5 L 312 294.5 L 301.5 307 L 293.5 313 L 283.5 318 L 277.5 320 L 274.5 320 L 273.5 321 L 264.5 321 L 261.5 322 L 260.5 321 L 252.5 321 L 251.5 320 L 244.5 319 L 233.5 314 Q 223.7 308.3 217 299.5 L 211 290.5 L 207 281.5 L 207 278.5 L 205 273.5 L 204 259.5 L 205 258.5 L 205 251.5 L 206 250.5 L 207 243.5 L 211 234.5 L 217 225.5 L 226.5 216 L 233.5 211 L 244.5 206 L 247.5 206 L 252.5 204 L 260.5 204 L 261.5 203 Z " /><path fill="rgb(0,0,0)" stroke="rgb(0,0,0)" stroke-width="1" opacity="1" d="M 261.5 406 L 264.5 407 L 273.5 407 L 274.5 408 L 277.5 408 L 283.5 410 L 296.5 417 L 305 424.5 L 312 433.5 L 317 443.5 L 319 449.5 L 319 452.5 L 320 453.5 L 320 458.5 L 321 459.5 L 321 471.5 L 320 472.5 L 320 477.5 L 319 478.5 L 319 481.5 L 317 487.5 L 312 497.5 L 301.5 510 L 293.5 516 L 283.5 521 L 277.5 523 L 274.5 523 L 273.5 524 L 264.5 524 L 261.5 525 L 260.5 524 L 252.5 524 L 251.5 523 L 244.5 522 L 233.5 517 Q 223.7 511.3 217 502.5 L 211 493.5 L 207 484.5 L 207 481.5 L 205 476.5 L 204 462.5 L 205 461.5 L 205 454.5 L 206 453.5 L 207 446.5 L 211 437.5 L 217 428.5 L 226.5 419 L 233.5 414 L 244.5 409 L 247.5 409 L 252.5 407 L 260.5 407 L 261.5 406 Z " /><path fill="rgb(0,0,0)" stroke="rgb(0,0,0)" stroke-width="1" opacity="0" d="M 0 0 L 255 0.5 L 249.5 1 L 232.5 8 Q 223.54 13.54 217 21.5 L 212 28.5 L 206 41.5 L 205 49.5 L 204 50.5 L 204 68.5 L 205 69.5 L 206 77.5 L 212 90.5 Q 217.54 99.46 225.5 106 L 232.5 111 L 249.5 118 Q 254.25 116.75 255.5 119 L 270.5 119 L 271.5 118 L 279.5 117 L 291.5 112 L 301.5 105 L 308 98.5 L 316 86.5 L 316 84.5 L 320 76.5 L 321 67.5 L 322 66.5 L 322 52.5 L 321 51.5 L 320 42.5 L 313 27.5 L 302.5 15 L 287.5 5 L 285.5 5 L 279.5 2 L 271 0.5 L 525 0 L 525 525 L 271.5 525 L 271.5 524 L 279.5 523 L 291.5 518 L 301.5 511 L 308 504.5 L 316 492.5 L 316 490.5 L 320 482.5 L 321 473.5 L 322 472.5 L 322 458.5 L 321 457.5 L 320 448.5 L 313 433.5 L 302.5 421 L 291.5 413 L 279.5 408 L 271.5 407 L 270.5 406 L 255.5 406 L 254.5 407 L 249.5 407 L 240.5 410 L 232.5 414 Q 223.54 419.54 217 427.5 L 212 434.5 L 206 447.5 L 205 455.5 L 204 456.5 L 204 474.5 L 205 475.5 L 206 483.5 L 212 496.5 Q 217.54 505.46 225.5 512 L 240.5 521 L 249.5 524 L 255 524.5 L 0 525 L 0 0 Z M 256 203 L 255 204 L 250 204 L 241 207 L 226 216 Q 218 223 212 232 L 206 245 L 205 253 L 204 254 L 204 272 L 205 273 L 206 281 L 212 294 L 217 301 Q 224 308 233 314 L 241 318 L 250 321 L 255 321 L 256 322 L 271 322 L 272 321 L 280 320 L 292 315 L 302 308 L 308 302 L 316 290 L 318 283 L 320 280 L 321 271 L 322 270 L 322 256 L 321 255 L 320 246 L 313 231 L 307 223 L 298 214 L 292 210 L 283 206 L 277 205 L 276 204 L 272 204 L 271 203 L 256 203 Z " /></svg>